<?xml version="1.0" standalone="no"?><!DOCTYPE svg PUBLIC "-//W3C//DTD SVG 1.1//EN" "http://www.w3.org/Graphics/SVG/1.1/DTD/svg11.dtd"><svg t="1619429389500" class="icon" viewBox="0 0 1024 1024" version="1.1" xmlns="http://www.w3.org/2000/svg" p-id="20181" xmlns:xlink="http://www.w3.org/1999/xlink" width="200" height="200"><defs><style type="text/css"></style></defs><path d="M688 315.5v-51c0-4.675-3.6-8.5-8-8.5H296c-4.4 0-8 3.825-8 8.5v51c0 4.675 3.6 8.5 8 8.5h384c4.4 0 8-3.825 8-8.5zM296 412c-4.4 0-8 3.825-8 8.5v51c0 4.675 3.6 8.5 8 8.5h184c4.4 0 8-3.825 8-8.5v-51c0-4.675-3.6-8.5-8-8.5H296z m144 436H212V152h552v340c0 4.4 3.6 8 8 8h60c4.4 0 8-3.6 8-8V108c0-17.7-14.3-32-32-32H168c-17.7 0-32 14.3-32 32v784c0 17.7 14.3 32 32 32h272c4.4 0 8-3.6 8-8v-60c0-4.4-3.6-8-8-8z" p-id="20182"></path><path d="M794.458 807.374l94.49 94.491a8 8 0 0 1 0 11.314l-36.77 36.77a8 8 0 0 1-11.313 0l-96.255-96.256C717.709 870.371 685.979 880 652 880c-97.202 0-176-78.798-176-176s78.798-176 176-176 176 78.798 176 176c0 38.628-12.444 74.35-33.542 103.374zM652 808c57.438 0 104-46.562 104-104s-46.562-104-104-104-104 46.562-104 104 46.562 104 104 104z" p-id="20183"></path></svg>