<?xml version="1.0" standalone="no"?><!DOCTYPE svg PUBLIC "-//W3C//DTD SVG 1.1//EN" "http://www.w3.org/Graphics/SVG/1.1/DTD/svg11.dtd"><svg t="1619441143943" class="icon" viewBox="0 0 1024 1024" version="1.1" xmlns="http://www.w3.org/2000/svg" p-id="30470" xmlns:xlink="http://www.w3.org/1999/xlink" width="200" height="200"><defs><style type="text/css"></style></defs><path d="M236.307692 118.153846h551.384616a118.153846 118.153846 0 0 1 118.153846 118.153846v472.615385a118.153846 118.153846 0 0 1-118.153846 118.153846H236.307692a118.153846 118.153846 0 0 1-118.153846-118.153846V236.307692a118.153846 118.153846 0 0 1 118.153846-118.153846z m0 78.769231a39.384615 39.384615 0 0 0-39.384615 39.384615v472.615385a39.384615 39.384615 0 0 0 39.384615 39.384615h551.384616a39.384615 39.384615 0 0 0 39.384615-39.384615V236.307692a39.384615 39.384615 0 0 0-39.384615-39.384615H236.307692z" fill="#52A8FF" p-id="30471"></path><path d="M552.684308 533.267692h-101.769846L433.152 590.769231H353.831385l112.955077-307.987693h69.828923l113.821538 307.987693h-79.793231l-17.959384-57.501539zM468.676923 475.844923h66.244923l-33.240615-106.811077-33.004308 106.811077z" fill="#FF9C00" p-id="30472"></path></svg>